<?xml version="1.0" encoding="UTF-8"?>
<svg id="Layer_1" xmlns="http://www.w3.org/2000/svg" version="1.1" viewBox="690 95 300 300">
  <!-- Generator: Adobe Illustrator 29.7.0, SVG Export Plug-In . SVG Version: 2.1.1 Build 138)  -->
  <defs>
    <style>
      .st0 {
        fill: #2596d1;
      }

      .st1 {
        fill: #7dcaf7;
      }

      .st2 {
        font-family: MyriadPro-Regular, 'Myriad Pro';
        font-size: 30px;
      }
    </style>
  </defs>
  <!-- White rectangle in bottom right corner -->
  <rect x="800" y="300" width="80" height="48" fill="white" rx="4" ry="4"/>
  <g id="cat_ori">
    <path class="st0" d="M904.8,321.3c-.7-2.4-3.6-7.9-3.7-9.4-.3-3.4.9-9.1,1.1-12.7.4-9.5.2-27.9-4.1-36.3-1.7-3.3-3.3-4.4-5.8-3.6-.8.2-1.6.6-2.5,1.2-7.5,4.7-17.2,15.9-23.1,22.8-1,1.1-2.7,4.2-4,4.3-2.1.3-4.2-.3-6.2-.4-9.6-.2-19.3,0-28.9.3-3.8-6.3-7.9-12.4-12.8-17.9-3-3.4-9-10.3-14-9.1-1.2.3-2.2,1-3.2,2.3-4.5,5.9-6.9,22.6-7.4,30.2-.3,4,.3,11-.4,14.4-.3,1.5-3.2,5.3-4,7-6.8,13.7-9.9,25-3.8,39.6.7,1.7,2.1,3.7,2.8,5.7,16.9,10,38.4,15.9,61.9,15.9s39.1-4.5,54.8-12.1c.7-2.2,2.2-5,2.7-6.7,3.6-11.2,4.1-24.2.8-35.5ZM824,336.6c-9.5,8.7-20.4,0-19.1-11.6.6-5.1,6.2-11.1,11.3-11.5,12.2-1,16.4,15.2,7.8,23ZM877.3,333.4c-6.6,14.7-27.5,10.9-24.7-6.8.8-5.3,6.5-10.6,11.8-11.3,9.5-1.3,16.9,9.2,12.9,18.1Z"/>
    <path class="st0" d="M860,318.1c5.7-1.2,6.8,6.4,5.3,10.5-3.4,9.6-12.4,4.8-10.3-4.4.5-2.2,2.5-5.6,4.9-6.1Z"/>
    <path class="st0" d="M814.5,317.1c7.1-1.2,8.1,11.5,1.9,14.3-8.2,3.7-8.8-13.2-1.9-14.3Z"/>
  </g>
  <path class="st1" d="M785.7,314.4c.9-1.7,3.7-5.6,4-7,.7-3.4.1-10.4.4-14.4.6-7.6,2.9-24.2,7.4-30.2,1-1.3,2.1-2,3.2-2.3,0-1.3,0-2.7,0-4.1v-113c0-6.9-2.6-12.9-7.7-18-5.1-5.1-11.2-7.7-18-7.7h-7.3c-6.9,0-12.9,2.6-18,7.7-5.1,5.1-7.7,11.1-7.7,18v119.4c0,27.9,3.9,49.5,11.5,64.6,6,12.8,17,23.9,31.1,32.2-.7-2-2.1-4-2.8-5.7-6.1-14.6-3-26,3.8-39.6Z"/>
  <path class="st0" d="M897,248c3.7.9,8,3.4,11.2,9.7,5.6,11,5.8,31,5.3,41.9,0,2-.3,4.1-.6,6.1-.2,1.2-.4,3.1-.5,4.3.3.7.7,1.5.9,2.1.9,2.1,1.8,4.1,2.4,5.9,3.5,12.1,3.5,26,0,38.7,10.3-7.9,18.9-18.3,24.7-31.9,8.9-20.8,9.8-36.3,2.2-66.5-7.1-29.2-14.6-61.1-2.8-90.8,2-5.3,4.3-10.8,5.8-16.2,3-9.8,1.9-20.2-6.2-27.2-9.2-8.5-24.5-11.1-35.4-4.4-16.2,10.7-18.9,33.3-20.7,51.4-2,23.8,4.3,45.9,11.2,68.8,1,3.4,1.8,5.9,2.4,7.9Z"/>
</svg>